<svg width="14" height="22" viewBox="0 0 14 22" fill="none" xmlns="http://www.w3.org/2000/svg">
<path d="M7.5 4.5C8.6 4.5 9.5 3.6 9.5 2.5C9.5 1.4 8.6 0.5 7.5 0.5C6.4 0.5 5.5 1.4 5.5 2.5C5.5 3.6 6.4 4.5 7.5 4.5ZM14 11.5V22H13V11.5C13 11.22 12.78 11 12.5 11C12.22 11 12 11.22 12 11.5V12.5H11V11.81C9.54 11.43 8.3 10.52 7.49 9.29C7.18 10.16 7 11.07 7 12C7 12.23 7.02 12.46 7.03 12.69L9 15.5V22H7V17L5.22 14.46L5 18L2 22L0.4 20.8L3 17.33V12C3 10.85 3.18 9.71 3.5 8.61L2 9.46V13H0V8.3L5.4 5.23V5.24C5.99 4.93 6.72 4.91 7.34 5.27C7.7 5.48 7.97 5.78 8.14 6.12L8.93 7.79C9.58 9.1 10.94 10 12.5 10C13.33 10 14 10.67 14 11.5Z" fill="#6F7271"/>
</svg>
